<svg width="2437" height="1024" viewBox="0 0 2437 1024" fill="none" xmlns="http://www.w3.org/2000/svg">
<path fill-rule="evenodd" clip-rule="evenodd" d="M171.542 0H334.23H1164.27H2437V1024H334.23V1023.18H35.4155V982.254H76.3639V961.79H0V920.863L35.4155 920.863V879.936H61.9762V839.009H108.458V798.082H61.9762V757.154H12.1737V716.227H49.8025V675.3H12.1737V634.373H49.8025V593.445H92.9643V552.518H132.807V511.591H108.458V470.664H76.3639V429.736H35.4155V388.809H76.3639V347.882H334.23V347.881H49.8025V306.954H92.9643V266.027H132.807V225.1H334.23V225.1H171.542V204.637H108.458V163.709H334.23V163.709H49.8025V122.782L92.9643 122.782V81.8545L132.807 81.8545V40.9272L171.542 40.9273V0Z" fill="#1E1E1E"/>
</svg>
