<svg width="2437" height="1252" viewBox="0 0 2437 1252" fill="none"
    xmlns="http://www.w3.org/2000/svg">
    <path fill-rule="evenodd" clip-rule="evenodd"
        d="M537 1.97869C483.893 16.4315 165.126 110.622 109.702 303C90.0374 371.257 194.618 409.102 282.48 440.897C342.203 462.51 394.202 481.327 394.202 505C394.202 543.694 348.063 572.118 304.486 598.963C264.078 623.856 225.874 647.392 228.702 676.5C232.812 718.788 266.865 739.945 302.543 762.11C329.621 778.932 357.634 796.336 374.202 824C400.599 868.075 318.97 916.841 225.208 972.856C125.383 1032.49 11.8048 1100.35 0.202176 1179.5C-10.6748 1253.7 420.457 1252.28 537 1250.55V1252H2437V1H544.517L544.5 0C544.5 0 543.165 0.33163 540.642 1H537V1.97869Z"
        fill="#1E1E1E" />
</svg>