<svg width="2862" height="1025" viewBox="0 0 2862 1025" fill="none"
    xmlns="http://www.w3.org/2000/svg">
    <path fill-rule="evenodd" clip-rule="evenodd"
        d="M2740.03 0H122.487V25H69.8174V50H30.6216V75H61.2434V100H91.865V125H0V150H153.108V175H183.73V200H107.788V225H30.6216V250H61.2434V275H100.439V300H139.635V325H172.706V350H100.439V375H214.352V400H367.46V425H244.973V450H306.217V475H336.838V500H139.635V525H398.082V550H306.217V575H69.8174V600H474.802V625H416.455V650H398.082V675H336.838V700H260.896V725H91.865V750H69.8174V775H459.325V800H139.635V825H324.59V850H260.896V875H367.46V900H139.635V925H214.352V950H61.2434V975H459.325V1000H153.108V1025H759.23H2740.03H2862V1H2740.03V0Z"
        fill="#1E1E1E" />
</svg>