<svg width="2741" height="1025" viewBox="0 0 2741 1025" fill="none"
    xmlns="http://www.w3.org/2000/svg">
    <path fill-rule="evenodd" clip-rule="evenodd"
        d="M122.487 0H2740.03V25V50V75V100V125V150V175V200V225V250V275V300V325V350V375V400V425V450V475V500V525V550V575V600V625V650V675V700V725V750V775V800V825V850V875V900V925V950V975V1000V1025H153.108V1000H459.325V975H61.2433V950H214.352V925H139.635V900H367.46V875H260.897V850H324.59V825H139.635V800H459.325V775H69.8174V750H91.865V725H260.897V700H336.838V675H398.082V650H416.455V625H520.568V600H69.8174V575H306.217V550H398.082V525H139.635V500H336.838V475H306.217V450H244.973V425H367.46V400H214.352V375H100.439V350H172.706V325H139.635V300H100.439V275H61.2433V250H30.6217V225H107.788V200H183.73V175H153.108V150H0V125H91.865V100H61.2433V75H30.6217V50H69.8174V25H122.487V0Z"
        fill="#1E1E1E" />
</svg>